<svg width="147" height="147" viewBox="0 0 147 147" fill="none" xmlns="http://www.w3.org/2000/svg">
<circle cx="73.7107" cy="73.7107" r="50" transform="rotate(45 73.7107 73.7107)" fill="#EEEEEE" stroke="black" stroke-width="3"/>
<path d="M109.063 109.062C118.439 99.6855 123.707 86.9682 123.707 73.7078C123.707 60.4475 118.439 47.7302 109.063 38.3537C99.6864 28.9772 86.9691 23.7095 73.7087 23.7095C60.4484 23.7095 47.7311 28.9772 38.3546 38.3537L73.7087 73.7078L109.063 109.062Z" fill="#32E0C4"/>
<circle cx="73.7107" cy="73.7107" r="50" transform="rotate(45 73.7107 73.7107)" stroke="black" stroke-width="3"/>
<path d="M102.31 45.1111C86.5151 29.316 60.9062 29.316 45.1112 45.1111L102.31 102.31C118.105 86.5151 118.105 60.9062 102.31 45.1111Z" fill="#222831"/>
<path d="M45.3363 102.085C61.1313 117.88 86.7402 117.88 102.535 102.085L45.3363 44.8859C29.5412 60.681 29.5412 86.2899 45.3363 102.085Z" fill="#393E46"/>
</svg>
